# xmcd
#
# Track frame offsets:
#       150
#       13088
#       22469
#       39744
#       53944
#       68900
#       90370
#       100811
#       119085
#       133874
#       156035
#       168489
#
# Disc length: 2418 seconds
#
# Revision: 0
# Processed by: cddbd v1.5.1PL0 Copyright (c) Steve Scherf et al.
# Submitted via: WhereIsIt 3.65
#
DISCID=a909700c
DTITLE=Mudd Creek - A New Dawn
DYEAR=2004
DGENRE=Bluegrass
TTITLE0=Blue Ridge Cabin Home
TTITLE1=Dear Old Dixie
TTITLE2=Rank Stranger
TTITLE3=Old Home Place
TTITLE4=Power in the Blood
TTITLE5=Soldiers Joy/Ragtime Annie
TTITLE6=New Dawn
TTITLE7=Catfish John
TTITLE8=Swing Down Sweet Chariot
TTITLE9=Jerusalem Ridge
TTITLE10=Long Journey Home
TTITLE11=Hallelujah I'm Ready
EXTD=
EXTT0=
EXTT1=
EXTT2=
EXTT3=
EXTT4=
EXTT5=
EXTT6=
EXTT7=
EXTT8=
EXTT9=
EXTT10=
EXTT11=
PLAYORDER=
